<svg width="206" height="47" viewBox="0 0 206 47" fill="none" xmlns="http://www.w3.org/2000/svg">
<g clip-path="url(#clip0_181_325)">
<path d="M60.3779 23.4539C59.1004 30.3672 53.4137 34.8935 46.4494 34.8935C38.3726 34.8935 31.4497 28.7624 31.4497 20.3267C31.4497 11.891 38.249 5.75995 46.1197 5.75995C49.9933 5.75995 53.2901 6.95329 55.5564 9.2164V6.33598H60.1718V17.1993H55.5564C54.485 12.961 50.7762 10.492 46.4082 10.492C40.9275 10.492 36.6419 14.5246 36.6419 20.3267C36.6419 26.1287 40.9687 30.1613 46.4494 30.1613C50.7763 30.1613 54.2378 27.6924 55.268 23.4539H60.3779Z" fill="white"/>
<path d="M84.3605 29.9558H87.4924V34.3175H79.6216V32.9596C77.8721 34.1796 75.7799 34.8135 73.6465 34.7701C68.207 34.7701 63.8389 30.2437 63.8389 24.6062C63.8389 18.9277 68.207 14.4013 73.6465 14.4013C75.7799 14.358 77.8721 14.9919 79.6216 16.2119V14.854H87.4924V19.2155H84.3605V29.9558ZM79.6216 28.392V20.7792C77.932 19.1334 76.2014 18.5161 74.347 18.5161C71.0091 18.5161 68.5777 21.3554 68.5777 24.6061C68.5777 27.8157 71.0092 30.6552 74.347 30.6552C76.2014 30.6552 77.9321 30.038 79.6216 28.3919L79.6216 28.392Z" fill="white"/>
<path d="M107.025 19.3801C103.522 19.5036 100.884 20.1209 99.0302 20.7792V29.9558H103.893V34.3175H91.2007V29.9558H94.2912V19.2158H91.2007V14.8538H99.0302V16.9524C100.967 15.5533 103.646 14.5246 107.025 14.5246L107.025 19.3801Z" fill="white"/>
<path d="M147.903 34.3174H136.901V29.9558H139.991V23.8657C139.991 20.4503 138.261 18.5573 135.294 18.5573C133.81 18.5573 132.162 19.2568 130.802 21.232C130.97 22.0025 131.053 22.789 131.049 23.5775V29.9558H134.181V34.3175H123.178V29.9558H126.269V23.8657C126.269 20.4503 124.58 18.5573 121.572 18.5573C120.17 18.5573 118.646 19.3391 117.327 21.1909V29.9558H120.5V34.3175H109.498V29.9558H112.588V19.2158H109.498V14.8538H117.327V16.2529C118.646 14.9773 120.088 14.2366 122.56 14.2366C123.781 14.2127 124.99 14.4671 126.097 14.9805C127.204 15.494 128.179 16.2528 128.948 17.1993C131.008 15.2241 133.068 14.2366 136.283 14.2366C141.022 14.2366 144.731 17.9399 144.731 23.5774V29.9558H147.904L147.903 34.3174Z" fill="white"/>
<path d="M167.601 26.4578H152.601C153.219 28.8857 155.032 30.7375 158.37 30.7375C160.225 30.7375 161.584 30.1203 162.326 28.927H167.395C166.282 32.507 162.656 34.9345 158.206 34.9345C151.983 34.9345 147.821 30.3672 147.821 24.6061C147.821 18.8041 152.065 14.4012 157.999 14.4012C163.686 14.4012 167.724 18.4338 167.724 24.2771C167.744 25.0062 167.702 25.7356 167.601 26.4578V26.4578ZM152.601 22.7133H163.191C162.779 20.0798 161.049 18.1458 158.123 18.1458C155.074 18.1457 153.219 20.2032 152.601 22.7133Z" fill="white"/>
<path d="M179.592 34.3174H168.59V29.9558H171.68V9.46332H168.59V5.1015H176.419V29.9558H179.592L179.592 34.3174Z" fill="white"/>
<path d="M184.331 11.7265C183.013 11.1916 182.353 10.2451 182.353 9.09294C182.373 8.26998 182.717 7.48806 183.312 6.91765C183.906 6.34724 184.702 6.0346 185.526 6.04789C187.298 6.04789 188.741 7.40579 188.741 9.09294C188.741 9.83371 188.7 10.204 187.71 12.0146L185.279 16.582H182.147L184.331 11.7265Z" fill="white"/>
<path d="M199.454 22.7956C202.545 23.3304 205.636 24.9766 205.636 28.8448C205.636 32.507 202.874 34.9346 198.136 34.9346C194.962 34.9346 192.655 33.8236 191.13 32.5479V34.3174H186.803V27.6101L191.13 27.6513L191.171 27.6101C192.902 29.6675 194.592 31.2314 197.6 31.2314C200.114 31.2314 200.814 30.1614 200.814 29.1327C200.814 28.0627 200.072 27.2399 198.3 26.9107L194.757 26.3346C190.553 25.5938 187.586 23.8244 187.586 20.2033C187.586 16.2942 191.007 14.2366 195.539 14.2366C197.93 14.2366 199.66 14.8951 200.855 16.0472V14.7716H205.141V20.7793H200.855C199.248 19.01 198.053 17.8577 195.622 17.8577C193.438 17.8577 192.572 18.8042 192.572 19.874C192.572 20.9027 193.273 21.7258 195.539 22.1372L199.454 22.7956Z" fill="white"/>
<path d="M24.5353 0L0.000488281 12.6483L15.2877 20.5293L24.5353 15.7618V0Z" fill="white"/>
<path d="M24.5353 41.5784V25.8165L15.2877 21.0494L0.000488281 28.9303L24.5353 41.5784Z" fill="white"/>
<path d="M0 12.9218V28.6834H0.000258112L15.2874 20.8025L0.000258112 12.9215L0 12.9218Z" fill="white"/>
<path d="M35.0264 44.0398C35.0264 44.7466 34.5024 45.1828 33.6567 45.1828H32.9305V46.1097H32.333V42.897H33.6567C34.5024 42.897 35.0264 43.3285 35.0264 44.0398ZM34.4242 44.0398C34.4242 43.6361 34.1532 43.402 33.6291 43.402H32.9305V44.6778H33.6291C34.1531 44.6779 34.4242 44.4438 34.4242 44.0398Z" fill="white"/>
<path d="M39.0167 46.1097L38.3595 45.169C38.3182 45.1728 38.2768 45.1743 38.2353 45.1735H37.5092V46.1099H36.9116V42.897H38.2353C39.081 42.897 39.605 43.3284 39.605 44.0397C39.6149 44.2597 39.5536 44.4771 39.4303 44.6597C39.307 44.8424 39.1282 44.9806 38.9202 45.054L39.6601 46.1096L39.0167 46.1097ZM38.2077 43.402H37.5092V44.6824H38.2077C38.7317 44.6824 39.0029 44.4438 39.0029 44.0398C39.0029 43.6358 38.7318 43.402 38.2077 43.402V43.402Z" fill="white"/>
<path d="M43.9721 45.6094V46.1097H41.5591V42.897H43.9079V43.397H42.1567V44.2324H43.7102V44.7234H42.1567V45.6092L43.9721 45.6094Z" fill="white"/>
<path d="M45.6831 44.5034C45.6999 44.164 45.816 43.837 46.0169 43.5628C46.2179 43.2887 46.4949 43.0793 46.8137 42.9606C47.1326 42.8419 47.4793 42.8192 47.8109 42.8952C48.1426 42.9712 48.4446 43.1426 48.6798 43.3881L48.2938 43.7508C48.1859 43.6302 48.0533 43.5342 47.905 43.4692C47.7567 43.4043 47.5962 43.3719 47.4342 43.3743C47.2842 43.3719 47.1353 43.3994 46.996 43.455C46.8567 43.5107 46.7299 43.5935 46.623 43.6986C46.5161 43.8037 46.4312 43.929 46.3732 44.0671C46.3153 44.2053 46.2854 44.3536 46.2854 44.5034C46.2854 44.6532 46.3153 44.8015 46.3732 44.9397C46.4312 45.0779 46.5161 45.2031 46.623 45.3082C46.7299 45.4133 46.8567 45.4961 46.996 45.5518C47.1353 45.6075 47.2842 45.6349 47.4342 45.6325C47.5966 45.6351 47.7576 45.6023 47.906 45.5365C48.0545 45.4707 48.1868 45.3735 48.2938 45.2515L48.6798 45.6187C48.4446 45.8643 48.1426 46.0357 47.8109 46.1117C47.4793 46.1877 47.1326 46.1649 46.8137 46.0462C46.4949 45.9276 46.2179 45.7182 46.0169 45.444C45.816 45.1698 45.6999 44.8428 45.6831 44.5034V44.5034Z" fill="white"/>
<path d="M50.542 42.897H51.1395V46.1096H50.542V42.897Z" fill="white"/>
<path d="M53.0244 45.7702L53.2312 45.3066C53.538 45.5352 53.9103 45.6591 54.293 45.6599C54.794 45.6599 55.0054 45.481 55.0054 45.2424C55.0054 44.5492 53.0934 45.0038 53.0934 43.8105C53.0934 43.2917 53.5072 42.8513 54.3896 42.8513C54.7661 42.8453 55.1368 42.9438 55.4605 43.1357L55.2721 43.5993C55.0036 43.4391 54.6977 43.352 54.385 43.3467C53.8887 43.3467 53.6864 43.5395 53.6864 43.7827C53.6864 44.4665 55.5938 44.0213 55.5938 45.201C55.5938 45.715 55.1757 46.1554 54.2932 46.1554C53.8394 46.1691 53.3937 46.0338 53.0244 45.7702V45.7702Z" fill="white"/>
<path d="M57.4741 42.897H58.0717V46.1096H57.4741V42.897Z" fill="white"/>
<path d="M59.9979 44.5034C59.982 44.1578 60.07 43.8153 60.2507 43.5202C60.4314 43.225 60.6965 42.9906 61.0118 42.8472C61.3271 42.7038 61.6782 42.658 62.0198 42.7157C62.3614 42.7734 62.6779 42.9319 62.9285 43.1708C63.179 43.4098 63.3522 43.7181 63.4257 44.0562C63.4991 44.3943 63.4695 44.7466 63.3406 45.0678C63.2118 45.3889 62.9895 45.6642 62.7026 45.858C62.4156 46.0519 62.0771 46.1555 61.7306 46.1555C61.5066 46.1671 61.2826 46.1329 61.0723 46.055C60.862 45.9771 60.6698 45.8572 60.5076 45.7025C60.3453 45.5478 60.2165 45.3616 60.1288 45.1554C60.0412 44.9493 59.9967 44.7274 59.9979 44.5034ZM62.8614 44.5034C62.8613 44.2801 62.795 44.0618 62.6708 43.8761C62.5465 43.6905 62.3699 43.5458 62.1633 43.4603C61.9567 43.3749 61.7294 43.3525 61.5101 43.3961C61.2907 43.4397 61.0893 43.5472 60.9311 43.7051C60.773 43.863 60.6653 44.0642 60.6217 44.2832C60.5781 44.5022 60.6005 44.7292 60.686 44.9355C60.7716 45.1418 60.9165 45.3181 61.1025 45.4422C61.2884 45.5663 61.507 45.6325 61.7306 45.6325C61.8804 45.6373 62.0296 45.6113 62.1689 45.5562C62.3082 45.5012 62.4348 45.4182 62.5408 45.3124C62.6467 45.2066 62.7298 45.0802 62.785 44.941C62.8401 44.8019 62.8661 44.653 62.8614 44.5034V44.5034Z" fill="white"/>
<path d="M68.2446 42.897V46.1096H67.7527L65.9787 43.9343V46.1096H65.3857V42.897H65.8775L67.6517 45.0723V42.897H68.2446Z" fill="white"/>
<path d="M72.9526 42.7043H73.4812V47H72.9526V42.7043Z" fill="white"/>
<path d="M78.786 43.3972V44.3748H80.3395V44.8797H78.786V46.1097H78.1885V42.897H80.5373V43.397L78.786 43.3972Z" fill="white"/>
<path d="M84.3527 45.3663H82.7441L82.4268 46.1097H81.811L83.2588 42.897H83.8471L85.2995 46.1096H84.6745L84.3527 45.3663ZM84.1551 44.8981L83.5484 43.4936L82.9462 44.8981H84.1551Z" fill="white"/>
<path d="M89.8555 45.2376C89.8555 45.7886 89.4234 46.1097 88.5961 46.1097H86.9966V42.897H88.5042C89.2764 42.897 89.69 43.2229 89.69 43.7323C89.6945 43.8771 89.6581 44.0201 89.5849 44.1451C89.5118 44.2701 89.4048 44.372 89.2764 44.4391C89.4492 44.4871 89.6006 44.5922 89.7058 44.7372C89.811 44.8823 89.8637 45.0587 89.8555 45.2376V45.2376ZM87.5941 43.3652V44.251H88.4398C88.8534 44.251 89.0878 44.1042 89.0878 43.8105C89.0878 43.512 88.8534 43.3652 88.4398 43.3652H87.5941ZM89.2533 45.178C89.2533 44.8568 89.0097 44.7146 88.5592 44.7146H87.5941V45.6416H88.5592C89.0097 45.6416 89.2533 45.4994 89.2533 45.178Z" fill="white"/>
<path d="M93.8873 46.1097L93.2301 45.169C93.1888 45.1728 93.1474 45.1743 93.1059 45.1735H92.3798V46.1099H91.7822V42.897H93.1059C93.9516 42.897 94.4756 43.3284 94.4756 44.0397C94.4855 44.2597 94.4242 44.4771 94.3009 44.6597C94.1776 44.8424 93.9988 44.9806 93.7908 45.054L94.5307 46.1096L93.8873 46.1097ZM93.0783 43.402H92.3798V44.6824H93.0784C93.6023 44.6824 93.8735 44.4438 93.8735 44.0398C93.8735 43.6358 93.6024 43.402 93.0783 43.402V43.402Z" fill="white"/>
<path d="M96.4297 42.897H97.0272V46.1096H96.4297V42.897Z" fill="white"/>
<path d="M98.9536 44.5034C98.9704 44.164 99.0865 43.837 99.2874 43.5628C99.4884 43.2886 99.7654 43.0792 100.084 42.9606C100.403 42.8419 100.75 42.8192 101.081 42.8952C101.413 42.9712 101.715 43.1425 101.95 43.3881L101.564 43.7508C101.456 43.6302 101.324 43.5342 101.176 43.4692C101.027 43.4043 100.867 43.3719 100.705 43.3743C100.555 43.3719 100.406 43.3994 100.266 43.455C100.127 43.5107 100 43.5935 99.8935 43.6986C99.7866 43.8037 99.7017 43.929 99.6437 44.0671C99.5858 44.2053 99.5559 44.3536 99.5559 44.5034C99.5559 44.6532 99.5858 44.8015 99.6437 44.9397C99.7017 45.0779 99.7866 45.2031 99.8935 45.3082C100 45.4133 100.127 45.4961 100.266 45.5518C100.406 45.6074 100.555 45.6349 100.705 45.6325C100.867 45.6351 101.028 45.6023 101.177 45.5365C101.325 45.4707 101.457 45.3735 101.564 45.2515L101.95 45.6187C101.715 45.8643 101.413 46.0357 101.081 46.1117C100.75 46.1877 100.403 46.1649 100.084 46.0463C99.7654 45.9276 99.4883 45.7182 99.2874 45.444C99.0865 45.1698 98.9704 44.8428 98.9536 44.5034V44.5034Z" fill="white"/>
<path d="M105.83 45.3663H104.222L103.904 46.1097H103.289L104.736 42.897H105.325L106.777 46.1096H106.152L105.83 45.3663ZM105.633 44.8981L105.026 43.4936L104.424 44.8981H105.633Z" fill="white"/>
<path d="M108.966 43.402H107.899V42.897H110.629V43.4019H109.563V46.1096H108.966V43.402Z" fill="white"/>
<path d="M112.368 42.897H112.965V46.1096H112.368V42.897Z" fill="white"/>
<path d="M114.892 44.5034C114.875 44.1578 114.963 43.8153 115.144 43.52C115.325 43.2248 115.59 42.9904 115.905 42.847C116.221 42.7036 116.572 42.6577 116.913 42.7154C117.255 42.773 117.572 42.9316 117.822 43.1705C118.073 43.4094 118.246 43.7178 118.32 44.0559C118.393 44.3941 118.363 44.7464 118.235 45.0676C118.106 45.3888 117.883 45.664 117.596 45.8579C117.309 46.0518 116.971 46.1555 116.624 46.1555C116.4 46.1671 116.176 46.133 115.966 46.0551C115.756 45.9772 115.564 45.8572 115.401 45.7025C115.239 45.5478 115.11 45.3617 115.022 45.1555C114.935 44.9493 114.89 44.7274 114.892 44.5034V44.5034ZM117.755 44.5034C117.755 44.2801 117.689 44.0619 117.564 43.8763C117.44 43.6907 117.263 43.546 117.057 43.4606C116.85 43.3752 116.623 43.3528 116.404 43.3964C116.184 43.44 115.983 43.5476 115.825 43.7054C115.667 43.8633 115.559 44.0645 115.516 44.2835C115.472 44.5025 115.494 44.7294 115.58 44.9357C115.666 45.142 115.81 45.3182 115.996 45.4423C116.182 45.5663 116.401 45.6325 116.624 45.6325C116.774 45.6373 116.923 45.6113 117.063 45.5563C117.202 45.5012 117.329 45.4182 117.434 45.3124C117.54 45.2066 117.624 45.0802 117.679 44.941C117.734 44.8019 117.76 44.6529 117.755 44.5034Z" fill="white"/>
<path d="M123.138 42.897V46.1096H122.646L120.872 43.9343V46.1096H120.279V42.897H120.771L122.545 45.0723V42.897H123.138Z" fill="white"/>
<path d="M127.846 42.7043H128.374V47H127.846V42.7043Z" fill="white"/>
<path d="M132.811 45.7702L133.018 45.3066C133.324 45.5352 133.696 45.6591 134.079 45.66C134.58 45.66 134.792 45.481 134.792 45.2424C134.792 44.5492 132.88 45.0038 132.88 43.8105C132.88 43.2917 133.293 42.8513 134.176 42.8513C134.552 42.8453 134.923 42.9438 135.247 43.1357L135.058 43.5993C134.79 43.4391 134.484 43.352 134.171 43.3467C133.675 43.3467 133.472 43.5395 133.472 43.7827C133.472 44.4665 135.38 44.0213 135.38 45.201C135.38 45.715 134.962 46.1555 134.079 46.1555C133.626 46.1691 133.18 46.0338 132.811 45.7702Z" fill="white"/>
<path d="M140.12 42.897V46.1096H139.522V44.7329H137.858V46.1096H137.261V42.897H137.858V44.2234H139.522V42.897H140.12Z" fill="white"/>
<path d="M144.684 45.6094V46.1097H142.271V42.897H144.62V43.397H142.869V44.2324H144.423V44.7234H142.869V45.6092L144.684 45.6094Z" fill="white"/>
<path d="M149.052 45.6094V46.1097H146.639V42.897H148.987V43.397H147.236V44.2324H148.79V44.7234H147.236V45.6092L149.052 45.6094Z" fill="white"/>
<path d="M151.658 43.402H150.592V42.897H153.322V43.4019H152.256V46.1096H151.659L151.658 43.402Z" fill="white"/>
<path d="M160.572 46.1097L160.567 43.9801L159.51 45.7425H159.243L158.186 44.0079V46.1099H157.616V42.897H158.108L159.386 45.0266L160.64 42.897H161.132L161.137 46.1096L160.572 46.1097Z" fill="white"/>
<path d="M165.706 45.6094V46.1097H163.293V42.897H165.642V43.397H163.891V44.2324H165.445V44.7234H163.891V45.6092L165.706 45.6094Z" fill="white"/>
<path d="M168.313 43.402H167.247V42.897H169.977V43.4019H168.911V46.1096H168.313V43.402Z" fill="white"/>
<path d="M173.641 45.3663H172.033L171.715 46.1097H171.1L172.547 42.897H173.136L174.588 46.1096H173.963L173.641 45.3663ZM173.444 44.8981L172.837 43.4936L172.235 44.8981H173.444Z" fill="white"/>
<path d="M176.285 42.897H176.883V45.6048H178.565V46.1096H176.285L176.285 42.897Z" fill="white"/>
<path d="M187.584 42.897L186.517 46.1096H185.883L185.088 43.7323L184.279 46.1096H183.64L182.574 42.897H183.194L183.994 45.3387L184.826 42.897H185.377L186.191 45.3523L187.014 42.897H187.584Z" fill="white"/>
<path d="M189.097 44.5034C189.081 44.1578 189.169 43.8153 189.35 43.52C189.53 43.2248 189.796 42.9904 190.111 42.847C190.426 42.7036 190.777 42.6577 191.119 42.7154C191.461 42.773 191.777 42.9316 192.028 43.1705C192.278 43.4094 192.452 43.7178 192.525 44.0559C192.599 44.3941 192.569 44.7464 192.44 45.0676C192.311 45.3888 192.089 45.664 191.802 45.8579C191.515 46.0518 191.177 46.1555 190.83 46.1555C190.606 46.1671 190.382 46.133 190.172 46.0551C189.961 45.9772 189.769 45.8572 189.607 45.7025C189.445 45.5478 189.316 45.3617 189.228 45.1555C189.14 44.9493 189.096 44.7274 189.097 44.5034V44.5034ZM191.961 44.5034C191.96 44.2801 191.894 44.0619 191.77 43.8763C191.646 43.6907 191.469 43.546 191.262 43.4606C191.056 43.3752 190.829 43.3528 190.609 43.3964C190.39 43.44 190.189 43.5476 190.031 43.7054C189.872 43.8633 189.765 44.0645 189.721 44.2835C189.678 44.5025 189.7 44.7294 189.786 44.9357C189.871 45.142 190.016 45.3182 190.202 45.4423C190.388 45.5663 190.606 45.6325 190.83 45.6325C190.98 45.6373 191.129 45.6113 191.268 45.5563C191.408 45.5012 191.534 45.4182 191.64 45.3124C191.746 45.2066 191.829 45.0802 191.884 44.941C191.939 44.8019 191.965 44.6529 191.961 44.5034V44.5034Z" fill="white"/>
<path d="M196.59 46.1097L195.933 45.169C195.892 45.1728 195.851 45.1743 195.809 45.1735H195.083V46.1099H194.485V42.897H195.809C196.655 42.897 197.179 43.3284 197.179 44.0397C197.189 44.2597 197.127 44.4771 197.004 44.6598C196.881 44.8424 196.702 44.9807 196.494 45.054L197.234 46.1096L196.59 46.1097ZM195.781 43.402H195.083V44.6824H195.781C196.305 44.6824 196.577 44.4438 196.577 44.0398C196.577 43.6358 196.305 43.402 195.781 43.402V43.402Z" fill="white"/>
<path d="M200.241 44.7649L199.73 45.2881V46.1097H199.133V42.897H199.73V44.5446L201.321 42.897H201.992L200.64 44.3334L202.074 46.1096H201.376L200.241 44.7649Z" fill="white"/>
<path d="M203.431 45.7702L203.638 45.3066C203.944 45.5352 204.317 45.6591 204.699 45.6599C205.2 45.6599 205.412 45.481 205.412 45.2424C205.412 44.5492 203.5 45.0038 203.5 43.8105C203.5 43.2917 203.914 42.8513 204.796 42.8513C205.172 42.8453 205.543 42.9438 205.867 43.1357L205.678 43.5993C205.41 43.4391 205.104 43.352 204.791 43.3467C204.295 43.3467 204.093 43.5395 204.093 43.7827C204.093 44.4665 206 44.0213 206 45.201C206 45.715 205.582 46.1554 204.699 46.1554C204.246 46.1691 203.8 46.0338 203.431 45.7702V45.7702Z" fill="white"/>
</g>
<defs>
<clipPath id="clip0_181_325">
<rect width="206" height="47" fill="white"/>
</clipPath>
</defs>
</svg>
