<svg width="197" height="45" viewBox="0 0 197 45" fill="none" xmlns="http://www.w3.org/2000/svg">
<g clip-path="url(#clip0_183_3)">
<path d="M57.74 22.2975C56.5184 28.9474 51.08 33.3013 44.4201 33.3013C36.6961 33.3013 30.0757 27.4037 30.0757 19.2894C30.0757 11.175 36.5779 5.27759 44.1048 5.27759C47.8091 5.27759 50.9619 6.42547 53.1292 8.60236V5.83167H57.5429V16.2811H53.1292C52.1046 12.2043 48.5578 9.8294 44.3807 9.8294C39.1394 9.8294 35.0411 13.7083 35.0411 19.2894C35.0411 24.8704 39.1788 28.7494 44.4201 28.7494C48.5579 28.7494 51.8682 26.3745 52.8533 22.2975H57.74Z" fill="#0E1E43"/>
<path d="M80.6749 28.5519H83.6699V32.7474H76.143V31.4412C74.4699 32.6147 72.4692 33.2245 70.4289 33.1827C65.2271 33.1827 61.0498 28.8288 61.0498 23.406C61.0498 17.9439 65.2271 13.5899 70.4289 13.5899C72.4692 13.5482 74.4699 14.158 76.143 15.3315V14.0253H83.6699V18.2207H80.6749V28.5519ZM76.143 27.0476V19.7248C74.5272 18.1417 72.8722 17.5479 71.0988 17.5479C67.9068 17.5479 65.5816 20.2791 65.5816 23.4059C65.5816 26.4933 67.9068 29.2246 71.0988 29.2246C72.8722 29.2246 74.5273 28.6309 76.143 27.0475L76.143 27.0476Z" fill="#0E1E43"/>
<path d="M102.349 18.3791C98.9991 18.4978 96.477 19.0916 94.7038 19.7248V28.5518H99.3539V32.7474H87.2163V28.5518H90.1718V18.221H87.2163V14.0252H94.7038V16.0438C96.5559 14.698 99.1174 13.7085 102.349 13.7085L102.349 18.3791Z" fill="#0E1E43"/>
<path d="M141.442 32.7472H130.92V28.5518H133.876V22.6937C133.876 19.4084 132.22 17.5876 129.383 17.5876C127.964 17.5876 126.388 18.2604 125.088 20.1604C125.248 20.9015 125.328 21.658 125.324 22.4165V28.5518H128.319V32.7473H117.797V28.5518H120.753V22.6937C120.753 19.4084 119.137 17.5876 116.26 17.5876C114.92 17.5876 113.462 18.3396 112.201 20.1208V28.5518H115.236V32.7473H104.714V28.5518H107.669V18.221H104.714V14.0252H112.201V15.371C113.462 14.1439 114.842 13.4314 117.206 13.4314C118.373 13.4084 119.53 13.6532 120.588 14.147C121.647 14.6409 122.579 15.3708 123.314 16.2813C125.285 14.3813 127.255 13.4314 130.329 13.4314C134.861 13.4314 138.408 16.9937 138.408 22.4164V28.5518H141.442L141.442 32.7472Z" fill="#0E1E43"/>
<path d="M160.279 25.187H145.934C146.525 27.5224 148.259 29.3036 151.451 29.3036C153.225 29.3036 154.525 28.7099 155.234 27.562H160.082C159.018 31.0057 155.55 33.3407 151.294 33.3407C145.343 33.3407 141.363 28.9474 141.363 23.4057C141.363 17.8249 145.422 13.5896 151.097 13.5896C156.535 13.5896 160.397 17.4686 160.397 23.0893C160.415 23.7906 160.376 24.4922 160.279 25.187ZM145.934 21.5851H156.062C155.668 19.0519 154.013 17.1915 151.215 17.1915C148.299 17.1915 146.525 19.1706 145.934 21.5851Z" fill="#0E1E43"/>
<path d="M171.746 32.7471H161.224V28.5518H164.18V8.83993H161.224V4.64429H168.712V28.5518H171.746L171.746 32.7471Z" fill="#0E1E43"/>
<path d="M176.278 11.0168C175.017 10.5024 174.386 9.59189 174.386 8.48363C174.405 7.69202 174.734 6.93989 175.303 6.39121C175.871 5.84253 176.632 5.5418 177.421 5.55459C179.115 5.55459 180.495 6.86076 180.495 8.48363C180.495 9.19618 180.455 9.55232 179.509 11.2939L177.184 15.6874H174.189L176.278 11.0168Z" fill="#0E1E43"/>
<path d="M190.74 21.6643C193.696 22.1788 196.652 23.7622 196.652 27.483C196.652 31.0057 194.011 33.3409 189.479 33.3409C186.445 33.3409 184.238 32.2722 182.78 31.0451V32.7471H178.642V26.2954L182.78 26.335L182.819 26.2954C184.474 28.2744 186.09 29.7787 188.967 29.7787C191.371 29.7787 192.041 28.7494 192.041 27.7599C192.041 26.7307 191.331 25.9393 189.637 25.6226L186.248 25.0684C182.228 24.3559 179.391 22.6539 179.391 19.1708C179.391 15.4105 182.662 13.4314 186.997 13.4314C189.282 13.4314 190.937 14.0648 192.08 15.173V13.946H196.179V19.7248H192.08C190.543 18.0229 189.401 16.9145 187.075 16.9145C184.987 16.9145 184.159 17.825 184.159 18.854C184.159 19.8435 184.829 20.6353 186.997 21.031L190.74 21.6643Z" fill="#0E1E43"/>
<path d="M23.4634 0L0.000488281 12.1665L14.6198 19.7472L23.4634 15.1614V0Z" fill="#F69220"/>
<path d="M23.4634 39.4942V24.3329L14.6198 19.7471L0.000488281 27.3278L23.4634 39.4942Z" fill="#0E1E43"/>
<path d="M0 12.1665V27.3279H0.000246835L14.6195 19.7472L0.000246835 12.1665H0Z" fill="#EE3C23"/>
<path d="M33.4961 42.099C33.4961 42.7789 32.9951 43.1985 32.1863 43.1985H31.4918V44.0901H30.9204V40.9998H32.1862C32.995 40.9998 33.4961 41.4148 33.4961 42.099ZM32.9203 42.099C32.9203 41.7107 32.6611 41.4855 32.1599 41.4855H31.4918V42.7127H32.1599C32.661 42.7129 32.9203 42.4876 32.9203 42.099Z" fill="#009245"/>
<path d="M37.312 44.0901L36.6834 43.1852C36.644 43.1889 36.6043 43.1903 36.5647 43.1896H35.8703V44.0902H35.2988V40.9998H36.5647C37.3734 40.9998 37.8746 41.4147 37.8746 42.0989C37.884 42.3106 37.8254 42.5197 37.7075 42.6954C37.5896 42.8711 37.4185 43.004 37.2197 43.0746L37.9273 44.09L37.312 44.0901ZM36.5383 41.4855H35.8703V42.7171H36.5383C37.0394 42.7171 37.2987 42.4876 37.2987 42.099C37.2987 41.7104 37.0395 41.4855 36.5383 41.4855Z" fill="#009245"/>
<path d="M42.0512 43.6088V44.0901H39.7437V40.9998H41.9899V41.4807H40.3152V42.2843H41.8007V42.7566H40.3152V43.6086L42.0512 43.6088Z" fill="#009245"/>
<path d="M43.687 42.5451C43.7031 42.2187 43.8141 41.9041 44.0063 41.6404C44.1984 41.3766 44.4633 41.1752 44.7683 41.0611C45.0732 40.9469 45.4047 40.9251 45.7219 40.9982C46.039 41.0712 46.3279 41.2361 46.5528 41.4723L46.1836 41.8212C46.0804 41.7052 45.9536 41.6128 45.8118 41.5503C45.67 41.4879 45.5165 41.4567 45.3616 41.459C45.2182 41.4567 45.0757 41.4831 44.9425 41.5367C44.8094 41.5902 44.6881 41.6699 44.5859 41.771C44.4836 41.872 44.4024 41.9925 44.347 42.1254C44.2916 42.2584 44.263 42.401 44.263 42.5451C44.263 42.6892 44.2916 42.8319 44.347 42.9648C44.4024 43.0977 44.4836 43.2182 44.5859 43.3193C44.6881 43.4203 44.8094 43.5 44.9425 43.5535C45.0757 43.6071 45.2182 43.6335 45.3616 43.6312C45.5169 43.6337 45.6709 43.6022 45.8128 43.5389C45.9548 43.4756 46.0813 43.382 46.1836 43.2647L46.5528 43.6179C46.3279 43.8541 46.039 44.019 45.7218 44.0921C45.4047 44.1652 45.0731 44.1433 44.7682 44.0292C44.4633 43.915 44.1984 43.7136 44.0062 43.4498C43.8141 43.1861 43.7031 42.8715 43.687 42.5451Z" fill="#009245"/>
<path d="M48.3335 40.9998H48.9049V44.09H48.3335V40.9998Z" fill="#009245"/>
<path d="M50.7075 43.7636L50.9053 43.3176C51.1986 43.5375 51.5547 43.6566 51.9207 43.6575C52.3998 43.6575 52.602 43.4854 52.602 43.2559C52.602 42.5891 50.7735 43.0263 50.7735 41.8785C50.7735 41.3795 51.1692 40.9558 52.0131 40.9558C52.3731 40.9501 52.7276 41.0448 53.0372 41.2294L52.857 41.6754C52.6003 41.5212 52.3077 41.4374 52.0086 41.4324C51.534 41.4324 51.3406 41.6179 51.3406 41.8517C51.3406 42.5095 53.1647 42.0813 53.1647 43.216C53.1647 43.7104 52.7648 44.1341 51.9209 44.1341C51.4869 44.1472 51.0607 44.0171 50.7075 43.7636Z" fill="#009245"/>
<path d="M54.9634 40.9998H55.5348V44.09H54.9634V40.9998Z" fill="#009245"/>
<path d="M57.3768 42.5451C57.3615 42.2127 57.4457 41.8833 57.6185 41.5994C57.7913 41.3154 58.0448 41.09 58.3463 40.9521C58.6478 40.8141 58.9836 40.7701 59.3103 40.8256C59.637 40.881 59.9396 41.0335 60.1793 41.2633C60.4189 41.4932 60.5845 41.7898 60.6548 42.115C60.725 42.4402 60.6967 42.7791 60.5734 43.088C60.4502 43.3969 60.2376 43.6617 59.9632 43.8482C59.6888 44.0346 59.3651 44.1343 59.0338 44.1343C58.8195 44.1455 58.6053 44.1126 58.4042 44.0377C58.203 43.9627 58.0193 43.8473 57.8641 43.6985C57.709 43.5497 57.5857 43.3707 57.5019 43.1724C57.4181 42.974 57.3755 42.7606 57.3768 42.5451ZM60.1151 42.5451C60.1151 42.3303 60.0516 42.1204 59.9328 41.9418C59.814 41.7632 59.6451 41.624 59.4475 41.5418C59.25 41.4596 59.0326 41.4381 58.8228 41.48C58.6131 41.5219 58.4204 41.6254 58.2692 41.7773C58.118 41.9292 58.015 42.1227 57.9733 42.3333C57.9316 42.544 57.953 42.7624 58.0348 42.9608C58.1166 43.1592 58.2552 43.3289 58.433 43.4482C58.6108 43.5675 58.8199 43.6312 59.0338 43.6312C59.177 43.6358 59.3196 43.6109 59.4529 43.5579C59.5861 43.5049 59.7072 43.4251 59.8085 43.3233C59.9098 43.2215 59.9893 43.1 60.042 42.9661C60.0948 42.8323 60.1196 42.689 60.1151 42.5451Z" fill="#009245"/>
<path d="M65.2633 40.9998V44.09H64.7929L63.0964 41.9976V44.09H62.5293V40.9998H62.9996L64.6962 43.0922V40.9998H65.2633Z" fill="#009245"/>
<path d="M69.7651 40.8145H70.2706V44.9466H69.7651V40.8145Z" fill="#999999"/>
<path d="M75.3439 41.4809V42.4213H76.8295V42.907H75.3439V44.0901H74.7725V40.9998H77.0187V41.4807L75.3439 41.4809Z" fill="#EE3C23"/>
<path d="M80.6674 43.375H79.1291L78.8257 44.0901H78.2368L79.6213 40.9998H80.1839L81.5728 44.09H80.9752L80.6674 43.375ZM80.4785 42.9246L79.8983 41.5736L79.3224 42.9246H80.4785Z" fill="#EE3C23"/>
<path d="M85.9298 43.2512C85.9298 43.7812 85.5166 44.0901 84.7254 44.0901H83.1958V40.9998H84.6375C85.376 40.9998 85.7715 41.3133 85.7715 41.8033C85.7758 41.9425 85.741 42.0801 85.6711 42.2004C85.6011 42.3206 85.4988 42.4186 85.376 42.4832C85.5412 42.5293 85.686 42.6304 85.7866 42.7699C85.8872 42.9094 85.9377 43.0791 85.9298 43.2512ZM83.7672 41.4502V42.3022H84.5759C84.9715 42.3022 85.1957 42.161 85.1957 41.8785C85.1957 41.5913 84.9715 41.4502 84.5759 41.4502H83.7672ZM85.3539 43.1939C85.3539 42.8849 85.1209 42.7481 84.6902 42.7481H83.7672V43.6398H84.6902C85.1209 43.6398 85.3539 43.503 85.3539 43.1939Z" fill="#EE3C23"/>
<path d="M89.7851 44.0901L89.1566 43.1852C89.1171 43.1889 89.0775 43.1903 89.0378 43.1896H88.3434V44.0902H87.772V40.9998H89.0378C89.8466 40.9998 90.3477 41.4147 90.3477 42.0989C90.3571 42.3106 90.2985 42.5197 90.1806 42.6954C90.0627 42.8711 89.8917 43.004 89.6928 43.0746L90.4004 44.09L89.7851 44.0901ZM89.0115 41.4855H88.3434V42.7171H89.0115C89.5126 42.7171 89.7719 42.4876 89.7719 42.099C89.7719 41.7104 89.5126 41.4855 89.0115 41.4855Z" fill="#EE3C23"/>
<path d="M92.2168 40.9998H92.7882V44.09H92.2168V40.9998Z" fill="#EE3C23"/>
<path d="M94.6304 42.5451C94.6465 42.2187 94.7574 41.9041 94.9496 41.6404C95.1418 41.3766 95.4067 41.1752 95.7116 41.0611C96.0165 40.9469 96.3481 40.9251 96.6652 40.9982C96.9824 41.0713 97.2713 41.2361 97.4961 41.4723L97.127 41.8212C97.0238 41.7052 96.897 41.6128 96.7552 41.5504C96.6134 41.4879 96.4598 41.4567 96.305 41.459C96.1616 41.4567 96.0191 41.4831 95.8859 41.5367C95.7527 41.5903 95.6315 41.6699 95.5292 41.771C95.427 41.8721 95.3458 41.9926 95.2904 42.1255C95.2349 42.2584 95.2064 42.401 95.2064 42.5451C95.2064 42.6892 95.2349 42.8319 95.2904 42.9648C95.3458 43.0977 95.427 43.2182 95.5292 43.3193C95.6315 43.4204 95.7527 43.5 95.8859 43.5536C96.0191 43.6071 96.1616 43.6335 96.305 43.6312C96.4603 43.6337 96.6142 43.6022 96.7562 43.5389C96.8981 43.4756 97.0246 43.382 97.127 43.2647L97.4961 43.6179C97.2713 43.8542 96.9824 44.0191 96.6652 44.0922C96.348 44.1653 96.0165 44.1434 95.7116 44.0292C95.4067 43.9151 95.1417 43.7137 94.9496 43.4499C94.7574 43.1861 94.6464 42.8716 94.6304 42.5451Z" fill="#EE3C23"/>
<path d="M101.207 43.375H99.6681L99.3647 44.0901H98.7759L100.16 40.9998H100.723L102.112 44.09H101.514L101.207 43.375ZM101.018 42.9246L100.437 41.5736L99.8614 42.9246H101.018Z" fill="#EE3C23"/>
<path d="M104.205 41.4855H103.186V40.9998H105.796V41.4854H104.777V44.09H104.205V41.4855Z" fill="#EE3C23"/>
<path d="M107.458 40.9998H108.03V44.09H107.458V40.9998Z" fill="#EE3C23"/>
<path d="M109.872 42.5452C109.857 42.2127 109.941 41.8833 110.114 41.5993C110.286 41.3153 110.54 41.0898 110.841 40.9519C111.143 40.8139 111.479 40.7698 111.805 40.8253C112.132 40.8808 112.435 41.0332 112.675 41.2631C112.914 41.4929 113.08 41.7895 113.15 42.1148C113.22 42.44 113.192 42.7789 113.069 43.0879C112.946 43.3968 112.733 43.6616 112.459 43.8481C112.184 44.0346 111.86 44.1343 111.529 44.1344C111.315 44.1455 111.101 44.1127 110.899 44.0377C110.698 43.9628 110.515 43.8474 110.359 43.6986C110.204 43.5498 110.081 43.3708 109.997 43.1724C109.913 42.9741 109.871 42.7607 109.872 42.5452ZM112.61 42.5452C112.61 42.3304 112.547 42.1205 112.428 41.942C112.309 41.7634 112.14 41.6243 111.943 41.5421C111.745 41.46 111.528 41.4385 111.318 41.4804C111.108 41.5223 110.916 41.6258 110.765 41.7776C110.613 41.9295 110.51 42.123 110.469 42.3336C110.427 42.5443 110.448 42.7626 110.53 42.961C110.612 43.1594 110.751 43.329 110.928 43.4483C111.106 43.5676 111.315 43.6313 111.529 43.6313C111.672 43.6359 111.815 43.6109 111.948 43.5579C112.081 43.505 112.202 43.4251 112.304 43.3234C112.405 43.2216 112.485 43.1 112.537 42.9662C112.59 42.8323 112.615 42.689 112.61 42.5452Z" fill="#EE3C23"/>
<path d="M117.758 40.9998V44.09H117.288L115.591 41.9976V44.09H115.024V40.9998H115.495L117.191 43.0922V40.9998H117.758Z" fill="#EE3C23"/>
<path d="M122.26 40.8145H122.766V44.9466H122.26V40.8145Z" fill="#999999"/>
<path d="M127.008 43.7636L127.206 43.3176C127.5 43.5375 127.856 43.6566 128.222 43.6575C128.7 43.6575 128.903 43.4854 128.903 43.2559C128.903 42.5891 127.074 43.0263 127.074 41.8785C127.074 41.3795 127.47 40.9558 128.314 40.9558C128.674 40.9501 129.028 41.0448 129.338 41.2294L129.158 41.6754C128.901 41.5212 128.608 41.4374 128.309 41.4324C127.835 41.4324 127.641 41.6179 127.641 41.8517C127.641 42.5095 129.465 42.0813 129.465 43.216C129.465 43.7104 129.066 44.1341 128.222 44.1341C127.788 44.1472 127.361 44.0171 127.008 43.7636Z" fill="#0E1E43"/>
<path d="M133.998 40.9998V44.09H133.426V42.7657H131.835V44.09H131.264V40.9998H131.835V42.2757H133.426V40.9998H133.998Z" fill="#0E1E43"/>
<path d="M138.363 43.6088V44.0901H136.056V40.9998H138.302V41.4807H136.627V42.2843H138.113V42.7566H136.627V43.6086L138.363 43.6088Z" fill="#0E1E43"/>
<path d="M142.54 43.6088V44.0901H140.232V40.9998H142.478V41.4807H140.804V42.2843H142.289V42.7566H140.804V43.6086L142.54 43.6088Z" fill="#0E1E43"/>
<path d="M145.032 41.4855H144.013V40.9998H146.624V41.4854H145.604V44.09H145.032L145.032 41.4855Z" fill="#0E1E43"/>
<path d="M153.556 44.0901L153.552 42.0416L152.541 43.7369H152.286L151.275 42.0684V44.0902H150.73V40.9998H151.2L152.422 43.0483L153.622 40.9998H154.092L154.097 44.09L153.556 44.0901Z" fill="#0E1E43"/>
<path d="M158.467 43.6088V44.0901H156.159V40.9998H158.405V41.4807H156.731V42.2843H158.216V42.7566H156.731V43.6086L158.467 43.6088Z" fill="#0E1E43"/>
<path d="M160.96 41.4855H159.94V40.9998H162.551V41.4854H161.532V44.09H160.96V41.4855Z" fill="#0E1E43"/>
<path d="M166.055 43.375H164.517L164.213 44.0901H163.625L165.009 40.9998H165.572L166.961 44.09H166.363L166.055 43.375ZM165.866 42.9246L165.286 41.5736L164.71 42.9246H165.866Z" fill="#0E1E43"/>
<path d="M168.584 40.9998H169.155V43.6044H170.764V44.09H168.583L168.584 40.9998Z" fill="#0E1E43"/>
<path d="M179.388 40.9998L178.368 44.09H177.762L177.002 41.8033L176.228 44.09H175.617L174.597 40.9998H175.191L175.955 43.3485L176.751 40.9998H177.278L178.056 43.3615L178.843 40.9998H179.388Z" fill="#0E1E43"/>
<path d="M180.836 42.5452C180.82 42.2127 180.905 41.8833 181.077 41.5993C181.25 41.3153 181.504 41.0898 181.805 40.9519C182.107 40.8139 182.443 40.7698 182.769 40.8253C183.096 40.8808 183.399 41.0332 183.638 41.2631C183.878 41.4929 184.044 41.7895 184.114 42.1148C184.184 42.44 184.156 42.7789 184.033 43.0879C183.909 43.3968 183.697 43.6616 183.423 43.8481C183.148 44.0346 182.824 44.1343 182.493 44.1344C182.279 44.1455 182.064 44.1127 181.863 44.0377C181.662 43.9628 181.478 43.8474 181.323 43.6986C181.168 43.5498 181.045 43.3708 180.961 43.1724C180.877 42.9741 180.835 42.7607 180.836 42.5452ZM183.574 42.5452C183.574 42.3304 183.511 42.1205 183.392 41.942C183.273 41.7634 183.104 41.6243 182.907 41.5421C182.709 41.46 182.492 41.4385 182.282 41.4804C182.072 41.5223 181.88 41.6258 181.728 41.7776C181.577 41.9295 181.474 42.123 181.433 42.3336C181.391 42.5443 181.412 42.7626 181.494 42.961C181.576 43.1594 181.715 43.329 181.892 43.4483C182.07 43.5676 182.279 43.6313 182.493 43.6313C182.636 43.6359 182.779 43.6109 182.912 43.5579C183.045 43.505 183.166 43.4251 183.268 43.3234C183.369 43.2216 183.448 43.1 183.501 42.9662C183.554 42.8323 183.579 42.689 183.574 42.5452Z" fill="#0E1E43"/>
<path d="M188.001 44.0901L187.373 43.1852C187.333 43.1889 187.294 43.1903 187.254 43.1896H186.56V44.0902H185.988V40.9998H187.254C188.063 40.9998 188.564 41.4147 188.564 42.0989C188.573 42.3106 188.515 42.5197 188.397 42.6954C188.279 42.8711 188.108 43.0041 187.909 43.0746L188.617 44.09L188.001 44.0901ZM187.228 41.4855H186.56V42.7171H187.228C187.729 42.7171 187.988 42.4876 187.988 42.099C187.988 41.7104 187.729 41.4855 187.228 41.4855Z" fill="#0E1E43"/>
<path d="M191.492 42.7966L191.004 43.2998V44.0901H190.433V40.9998H191.004V42.5846L192.525 40.9998H193.167L191.874 42.3815L193.246 44.09H192.578L191.492 42.7966Z" fill="#0E1E43"/>
<path d="M194.543 43.7636L194.741 43.3176C195.034 43.5375 195.39 43.6567 195.756 43.6575C196.235 43.6575 196.438 43.4853 196.438 43.2558C196.438 42.5891 194.609 43.0263 194.609 41.8785C194.609 41.3795 195.005 40.9558 195.849 40.9558C196.209 40.9501 196.563 41.0448 196.873 41.2294L196.692 41.6753C196.436 41.5212 196.143 41.4374 195.844 41.4324C195.369 41.4324 195.176 41.6179 195.176 41.8517C195.176 42.5095 197 42.0812 197 43.216C197 43.7104 196.6 44.1341 195.756 44.1341C195.322 44.1472 194.896 44.0171 194.543 43.7636Z" fill="#0E1E43"/>
</g>
<defs>
<clipPath id="clip0_183_3">
<rect width="197" height="44.9466" fill="white"/>
</clipPath>
</defs>
</svg>
