<svg width="289" height="38" viewBox="0 0 289 38" fill="none" xmlns="http://www.w3.org/2000/svg">
<g clip-path="url(#clip0_207_46)">
<path d="M55.6712 22.1246C54.4935 28.5126 49.2505 32.6952 42.8296 32.6952C35.3832 32.6952 29.0005 27.0296 29.0005 19.2348C29.0005 11.44 35.2692 5.77451 42.5259 5.77451C46.0971 5.77451 49.1366 6.87711 51.2263 8.96842V6.30689H55.4815V16.3449H51.2263C50.2383 12.4285 46.8191 10.147 42.792 10.147C37.7388 10.147 33.7875 13.8733 33.7875 19.2347C33.7875 24.596 37.7767 28.3221 42.8296 28.3221C46.8191 28.3221 50.0104 26.0408 50.9601 22.1245L55.6712 22.1246Z" fill="white"/>
<path d="M77.7846 28.1322H80.6722V32.1627H73.4155V30.9079C71.8024 32.0351 69.8735 32.6209 67.9065 32.581C62.8916 32.581 58.8643 28.3982 58.8643 23.189C58.8643 17.9418 62.8914 13.7592 67.9065 13.7592C69.8735 13.7192 71.8024 14.305 73.4155 15.4322V14.1775H80.6722V18.208H77.7847L77.7846 28.1322ZM73.4155 26.6875V19.6531C71.8578 18.1321 70.2621 17.5617 68.5525 17.5617C65.4751 17.5617 63.2335 20.1855 63.2335 23.1892C63.2335 26.1551 65.4752 28.7786 68.5525 28.7786C70.2621 28.7786 71.8578 28.2083 73.4155 26.6875Z" fill="white"/>
<path d="M98.6824 18.3602C96.1741 18.412 93.6884 18.848 91.312 19.6531V28.1322H95.795V32.1627H84.0933V28.1322H86.9427V18.2081H84.0933V14.1776H91.312V16.1169C93.4687 14.6053 96.05 13.8195 98.6824 13.8734V18.3602Z" fill="white"/>
<path d="M136.373 32.1627H126.229V28.1322H129.078V22.5048C129.078 19.3489 127.482 17.5998 124.747 17.5998C123.379 17.5998 121.859 18.2461 120.606 20.0713C120.761 20.7832 120.837 21.5099 120.834 22.2385V28.1322H123.721V32.1627H113.577V28.1322H116.426V22.5048C116.426 19.3489 114.869 17.5998 112.095 17.5998C110.804 17.5998 109.398 18.3222 108.182 20.0333V28.1322H111.107V32.1627H100.963V28.1322H103.813V18.2081H100.963V14.1776H108.182V15.4704C109.398 14.2917 110.728 13.6074 113.007 13.6074C114.132 13.5852 115.247 13.8203 116.268 14.2948C117.288 14.7692 118.187 15.4704 118.896 16.345C120.796 14.5199 122.695 13.6074 125.659 13.6074C130.028 13.6074 133.447 17.0293 133.447 22.2385V28.1322H136.373L136.373 32.1627Z" fill="white"/>
<path d="M154.536 24.9003H140.706C141.276 27.1436 142.948 28.8546 146.025 28.8546C147.735 28.8546 148.989 28.2844 149.673 27.1816H154.346C153.32 30.4896 149.977 32.7333 145.873 32.7333C140.136 32.7333 136.299 28.5125 136.299 23.1892C136.299 17.8278 140.212 13.7593 145.684 13.7593C150.926 13.7593 154.65 17.4857 154.65 22.885C154.667 23.5588 154.629 24.2329 154.536 24.9003ZM140.706 21.44H150.47C150.091 19.0065 148.495 17.2196 145.797 17.2196C142.986 17.2196 141.276 19.1207 140.706 21.44Z" fill="white"/>
<path d="M165.593 32.1627H155.449V28.1322H158.299V9.19668H155.449V5.16623H162.668V28.1322H165.593V32.1627Z" fill="white"/>
<path d="M169.963 11.2878C168.748 10.7937 168.14 9.91908 168.14 8.8543C168.175 8.09635 168.5 7.38104 169.049 6.85705C169.597 6.33306 170.326 6.04068 171.084 6.04068C171.842 6.04068 172.571 6.33306 173.12 6.85705C173.668 7.38104 173.993 8.09635 174.028 8.8543C174.028 9.53887 173.99 9.88103 173.078 11.5541L170.837 15.7746H167.95L169.963 11.2878Z" fill="white"/>
<path d="M183.907 21.516C186.756 22.0104 189.606 23.5311 189.606 27.1054C189.606 30.4895 187.06 32.7332 182.691 32.7332C180.344 32.792 178.054 32.0098 176.232 30.5276V32.1626H172.243V25.9649L176.232 26.0029L176.27 25.9649C177.866 27.8661 179.424 29.3109 182.197 29.3109C184.515 29.3109 185.161 28.3221 185.161 27.3718C185.161 26.383 184.477 25.6226 182.843 25.3186L179.576 24.7861C175.701 24.1018 172.965 22.4668 172.965 19.1207C172.965 15.5085 176.118 13.6073 180.298 13.6073C182.501 13.6073 184.097 14.2155 185.199 15.2803V14.1016H189.15V19.6529H185.199C183.717 18.018 182.615 16.9534 180.374 16.9534C178.36 16.9534 177.562 17.8277 177.562 18.8164C177.562 19.7671 178.208 20.5275 180.298 20.9077L183.907 21.516Z" fill="white"/>
<path d="M22.6281 0L0.00585938 11.6886L14.1012 18.9714L22.6281 14.566V0Z" fill="white"/>
<path d="M22.6219 38.0002V23.4342L14.0954 19.0287L0 26.3115L22.6219 38.0002Z" fill="white"/>
<path d="M0.00244141 11.7171V26.2827L0.00281566 26.2831L14.0982 18.9999L0.00281566 11.7171H0.00244141Z" fill="white"/>
<path d="M211.058 7.7989C211.058 9.06448 210.143 9.83059 208.628 9.83059H207.189V11.596H206.357V5.76703H208.628C210.143 5.76703 211.058 6.53314 211.058 7.7989ZM210.226 7.7989C210.226 6.9662 209.669 6.49142 208.604 6.49142H207.189V9.10616H208.604C209.669 9.10616 210.226 8.63142 210.226 7.7989Z" fill="white"/>
<path d="M218.505 11.596L217.249 9.80564C217.132 9.81384 217.007 9.82227 216.882 9.82227H215.443V11.5959H214.611V5.76703H216.882C218.397 5.76703 219.312 6.53314 219.312 7.7989C219.331 8.20411 219.216 8.60427 218.984 8.93709C218.752 9.2699 218.417 9.51672 218.031 9.63912L219.412 11.596H218.505ZM218.48 7.7989C218.48 6.9662 217.922 6.49142 216.857 6.49142H215.443V9.11459H216.857C217.922 9.11459 218.48 8.63142 218.48 7.7989Z" fill="white"/>
<path d="M227.216 10.8716V11.596H222.99V5.76703H227.1V6.49142H223.822V8.28178H226.742V8.98968H223.822V10.8716H227.216Z" fill="white"/>
<path d="M230.395 8.68147C230.39 8.27939 230.468 7.88056 230.622 7.50949C230.777 7.13843 231.006 6.80297 231.295 6.52376C231.585 6.24454 231.928 6.02746 232.304 5.88587C232.68 5.74427 233.081 5.68116 233.482 5.7004C233.894 5.68407 234.305 5.75668 234.687 5.91329C235.069 6.0699 235.413 6.30686 235.695 6.60809L235.155 7.13246C234.946 6.90733 234.692 6.72924 234.409 6.61007C234.127 6.49089 233.822 6.43336 233.515 6.44131C233.217 6.43462 232.921 6.48762 232.643 6.59718C232.366 6.70675 232.113 6.87068 231.9 7.07934C231.687 7.28801 231.517 7.53721 231.402 7.81231C231.286 8.0874 231.226 8.38286 231.226 8.68132C231.226 8.97978 231.286 9.27522 231.402 9.55031C231.517 9.82541 231.687 10.0746 231.9 10.2833C232.113 10.4919 232.366 10.6559 232.643 10.7654C232.921 10.875 233.217 10.928 233.515 10.9213C233.823 10.9278 234.128 10.8687 234.41 10.7481C234.693 10.6275 234.947 10.4481 235.155 10.2218L235.695 10.7465C235.412 11.0497 235.067 11.2884 234.684 11.4464C234.301 11.6044 233.888 11.6781 233.474 11.6624C233.073 11.6808 232.673 11.617 232.298 11.475C231.922 11.333 231.58 11.1158 231.292 10.8366C231.004 10.5575 230.775 10.2223 230.621 9.85171C230.467 9.48111 230.39 9.08288 230.395 8.68147Z" fill="white"/>
<path d="M239.215 5.76703H240.047V11.596H239.215V5.76703Z" fill="white"/>
<path d="M243.592 10.9299L243.9 10.2803C244.442 10.7227 245.122 10.9613 245.822 10.9548C246.828 10.9548 247.261 10.5634 247.261 10.0555C247.261 8.63156 243.733 9.53082 243.733 7.3658C243.733 6.46654 244.432 5.70043 245.963 5.70043C246.624 5.68837 247.274 5.86766 247.835 6.21672L247.561 6.88282C247.084 6.57729 246.53 6.41279 245.963 6.40823C244.973 6.40823 244.549 6.82465 244.549 7.3325C244.549 8.75647 248.077 7.86546 248.077 10.0056C248.077 10.8964 247.361 11.6626 245.822 11.6626C245.016 11.686 244.227 11.4268 243.592 10.9299Z" fill="white"/>
<path d="M251.621 5.76703H252.453V11.596H251.621V5.76703Z" fill="white"/>
<path d="M256.056 8.68149C256.056 6.97443 257.371 5.70043 259.159 5.70043C259.56 5.68609 259.958 5.75258 260.332 5.89593C260.706 6.03929 261.047 6.25657 261.336 6.5348C261.624 6.81303 261.853 7.14651 262.009 7.51534C262.166 7.88416 262.247 8.28078 262.247 8.68149C262.247 9.08221 262.166 9.47881 262.009 9.84764C261.853 10.2165 261.624 10.5499 261.336 10.8282C261.047 11.1064 260.706 11.3237 260.332 11.467C259.958 11.6104 259.56 11.6769 259.159 11.6625C257.371 11.6625 256.056 10.3886 256.056 8.68149ZM261.414 8.68149C261.419 8.23209 261.291 7.79135 261.045 7.41537C260.799 7.03938 260.446 6.74514 260.033 6.57008C259.619 6.39501 259.163 6.34703 258.722 6.43225C258.281 6.51747 257.876 6.73203 257.557 7.04863C257.238 7.36524 257.021 7.76958 256.932 8.21021C256.844 8.65083 256.888 9.10783 257.06 9.52306C257.232 9.93829 257.523 10.293 257.897 10.542C258.271 10.791 258.71 10.9231 259.159 10.9215C259.457 10.9309 259.753 10.8794 260.029 10.7704C260.306 10.6614 260.558 10.497 260.769 10.2873C260.98 10.0777 261.146 9.82711 261.257 9.55101C261.368 9.2749 261.422 8.97903 261.414 8.68149Z" fill="white"/>
<path d="M270.858 5.76703V11.596H270.176L266.681 7.24933V11.596H265.849V5.76703H266.531L270.026 10.1137V5.76703H270.858Z" fill="white"/>
<path d="M207.189 16.4843V18.5162H210.11V19.2324H207.189V21.5889H206.357V15.7599H210.467V16.4843H207.189Z" fill="white"/>
<path d="M217.415 20.1317H214.32L213.679 21.5889H212.822L215.46 15.7599H216.284L218.929 21.5889H218.056L217.415 20.1317ZM217.124 19.4656L215.867 16.6093L214.611 19.4656H217.124Z" fill="white"/>
<path d="M227.133 20.0152C227.133 21.0143 226.376 21.5889 224.903 21.5889H222.124V15.7599H224.737C226.076 15.7599 226.825 16.3262 226.825 17.2671C226.836 17.5364 226.767 17.8029 226.628 18.0337C226.489 18.2645 226.286 18.4496 226.043 18.5661C226.366 18.6405 226.653 18.8267 226.852 19.0917C227.051 19.3568 227.151 19.6839 227.133 20.0152ZM222.956 16.4345V18.2997H224.662C225.511 18.2997 225.993 17.9833 225.993 17.3671C225.993 16.7508 225.511 16.4345 224.662 16.4345H222.956ZM226.293 19.9485C226.293 19.274 225.794 18.9742 224.87 18.9742H222.956V20.9144H224.87C225.793 20.9144 226.293 20.6229 226.293 19.9484L226.293 19.9485Z" fill="white"/>
<path d="M234.647 21.5889L233.391 19.7985C233.274 19.8067 233.149 19.8152 233.024 19.8152H231.585V21.5888H230.753V15.7599H233.024C234.539 15.7599 235.454 16.5261 235.454 17.7918C235.473 18.197 235.358 18.5972 235.126 18.93C234.894 19.2628 234.559 19.5096 234.173 19.632L235.554 21.5889H234.647ZM234.622 17.7918C234.622 16.9591 234.065 16.4843 233 16.4843H231.585V19.1076H233C234.065 19.1076 234.622 18.6245 234.622 17.7918Z" fill="white"/>
<path d="M239.132 15.7599H239.964V21.5889H239.132L239.132 15.7599Z" fill="white"/>
<path d="M243.567 18.6744C243.562 18.2723 243.639 17.8735 243.794 17.5024C243.949 17.1314 244.178 16.7959 244.467 16.5167C244.756 16.2375 245.099 16.0204 245.475 15.8788C245.851 15.7372 246.252 15.6741 246.653 15.6934C247.066 15.677 247.477 15.7496 247.859 15.9062C248.24 16.0629 248.584 16.2998 248.866 16.601L248.326 17.1254C248.117 16.9003 247.863 16.7222 247.581 16.603C247.298 16.4839 246.993 16.4263 246.687 16.4343C246.389 16.4276 246.092 16.4806 245.815 16.5902C245.537 16.6997 245.285 16.8637 245.071 17.0723C244.858 17.281 244.689 17.5302 244.573 17.8053C244.457 18.0804 244.398 18.3758 244.398 18.6743C244.398 18.9728 244.457 19.2682 244.573 19.5433C244.689 19.8184 244.858 20.0676 245.071 20.2763C245.285 20.4849 245.537 20.6489 245.815 20.7584C246.092 20.868 246.389 20.921 246.687 20.9143C246.994 20.9207 247.299 20.8617 247.582 20.7411C247.864 20.6205 248.118 20.441 248.326 20.2147L248.866 20.7395C248.583 21.0427 248.239 21.2813 247.855 21.4394C247.472 21.5974 247.059 21.6711 246.645 21.6553C246.244 21.6737 245.844 21.61 245.469 21.468C245.094 21.326 244.752 21.1087 244.463 20.8296C244.175 20.5504 243.947 20.2153 243.793 19.8447C243.638 19.474 243.562 19.0758 243.567 18.6744Z" fill="white"/>
<path d="M255.956 20.1317H252.861L252.22 21.5889H251.363L254.001 15.7599H254.825L257.47 21.5889H256.597L255.956 20.1317ZM255.665 19.4656L254.408 16.6093L253.152 19.4656H255.665Z" fill="white"/>
<path d="M261.531 16.4843H259.534V15.7599H264.351V16.4843H262.354V21.5889H261.531V16.4843Z" fill="white"/>
<path d="M267.588 15.7599H268.421V21.5889H267.588V15.7599Z" fill="white"/>
<path d="M272.023 18.6744C272.023 16.9674 273.338 15.6934 275.127 15.6934C275.527 15.679 275.926 15.7455 276.3 15.8889C276.674 16.0322 277.015 16.2495 277.303 16.5278C277.591 16.806 277.82 17.1395 277.977 17.5083C278.133 17.8771 278.214 18.2737 278.214 18.6744C278.214 19.0751 278.133 19.4718 277.977 19.8406C277.82 20.2094 277.591 20.5429 277.303 20.8211C277.015 21.0993 276.674 21.3166 276.3 21.46C275.926 21.6033 275.527 21.6698 275.127 21.6555C273.338 21.6555 272.023 20.3815 272.023 18.6744ZM277.382 18.6744C277.387 18.225 277.258 17.7843 277.012 17.4083C276.766 17.0323 276.414 16.738 276 16.5629C275.587 16.3878 275.13 16.3398 274.689 16.425C274.249 16.5102 273.843 16.7247 273.524 17.0413C273.205 17.3579 272.988 17.7623 272.9 18.2029C272.811 18.6435 272.856 19.1005 273.027 19.5158C273.199 19.931 273.491 20.2857 273.864 20.5348C274.238 20.7838 274.678 20.9159 275.127 20.9142C275.424 20.9236 275.72 20.8722 275.997 20.7632C276.273 20.6542 276.525 20.4898 276.736 20.2802C276.947 20.0705 277.113 19.82 277.224 19.5439C277.335 19.2678 277.389 18.972 277.382 18.6744H277.382Z" fill="white"/>
<path d="M286.825 15.7599V21.5889H286.143L282.648 17.2424V21.589H281.816V15.7599H282.499L285.993 20.1066V15.7599H286.825Z" fill="white"/>
<path d="M205.824 30.9154L206.132 30.2661C206.675 30.7086 207.355 30.9472 208.054 30.9406C209.061 30.9406 209.494 30.5493 209.494 30.0412C209.494 28.6173 205.966 29.5165 205.966 27.3515C205.966 26.4522 206.665 25.6861 208.196 25.6861C208.856 25.674 209.507 25.8533 210.068 26.2024L209.793 26.8685C209.316 26.563 208.762 26.3985 208.196 26.3939C207.205 26.3939 206.781 26.8103 206.781 27.3182C206.781 28.7422 210.309 27.8511 210.309 29.9914C210.309 30.8821 209.594 31.6484 208.055 31.6484C207.248 31.6718 206.459 31.4125 205.824 30.9154Z" fill="white"/>
<path d="M218.862 25.7527V31.5818H218.031V28.9836H214.686V31.5818H213.854V25.7527H214.686V28.2591H218.031V25.7527H218.862Z" fill="white"/>
<path d="M227.166 30.8573V31.5819H222.939V25.7527H227.05V26.4772H223.772V28.2675H226.692V28.9754H223.772V30.8573H227.166Z" fill="white"/>
<path d="M235.071 30.8573V31.5819H230.844V25.7527H234.955V26.4772H231.676V28.2675H234.597V28.9754H231.676V30.8573H235.071Z" fill="white"/>
<path d="M239.906 26.4771H237.909V25.7527H242.726V26.4771H240.729V31.5818H239.906V26.4771Z" fill="white"/>
<path d="M255.931 31.5818L255.923 27.3349L253.818 30.8741H253.435L251.33 27.3599V31.5818H250.531V25.7527H251.214L253.643 29.8495L256.039 25.7527H256.722L256.73 31.5818H255.931Z" fill="white"/>
<path d="M265.033 30.8573V31.5819H260.807V25.7527H264.917V26.4772H261.639V28.2675H264.559V28.9754H261.639V30.8573H265.033Z" fill="white"/>
<path d="M269.868 26.4771H267.871V25.7527H272.689V26.4771H270.692V31.5818H269.868L269.868 26.4771Z" fill="white"/>
<path d="M279.345 30.1246H276.25L275.609 31.5818H274.752L277.39 25.7527H278.214L280.86 31.5818H279.986L279.345 30.1246ZM279.054 29.4583L277.798 26.602L276.541 29.4583H279.054Z" fill="white"/>
<path d="M284.055 25.7527H284.887V30.8573H288.04V31.5819H284.055V25.7527Z" fill="white"/>
<path d="M197.772 5.83728V32.1627" stroke="white" stroke-miterlimit="10"/>
</g>
<defs>
<clipPath id="clip0_207_46">
<rect width="288.04" height="38" fill="white"/>
</clipPath>
</defs>
</svg>
