<svg width="292" height="39" viewBox="0 0 292 39" fill="none" xmlns="http://www.w3.org/2000/svg">
<g clip-path="url(#clip0_207_2)">
<path d="M56.4341 22.7734C55.2402 29.1711 49.9251 33.36 43.4159 33.36C35.867 33.36 29.3965 27.6858 29.3965 19.8792C29.3965 12.0727 35.7514 6.39865 43.1079 6.39865C46.7283 6.39865 49.8097 7.50291 51.928 9.59738V6.93184H56.2418V16.985H51.928C50.9264 13.0627 47.4603 10.7778 43.3777 10.7778C38.2551 10.7778 34.2494 14.5097 34.2494 19.8791C34.2494 25.2485 38.2934 28.9803 43.4159 28.9803C47.4603 28.9803 50.6954 26.6955 51.6582 22.7733L56.4341 22.7734Z" fill="#0E1E43"/>
<path d="M78.852 28.7901H81.7793V32.8266H74.4228V31.57C72.7875 32.6989 70.8321 33.2856 68.8381 33.2455C63.7541 33.2455 59.6714 29.0564 59.6714 23.8394C59.6714 18.5843 63.754 14.3954 68.8381 14.3954C70.8321 14.3553 72.7876 14.942 74.4228 16.0709V14.8143H81.7793V18.8508H78.8521L78.852 28.7901ZM74.4228 27.3431V20.2981C72.8437 18.7749 71.2261 18.2037 69.4929 18.2037C66.3732 18.2037 64.1007 20.8313 64.1007 23.8396C64.1007 26.8099 66.3733 29.4374 69.4929 29.4374C71.226 29.4374 72.8437 28.8663 74.4228 27.3431Z" fill="#0E1E43"/>
<path d="M100.037 19.0033C97.4943 19.0552 94.9745 19.4918 92.5654 20.2981V28.7901H97.11V32.8266H85.2473V28.7901H88.136V18.8509H85.2473V14.8144H92.5654V16.7567C94.7517 15.2427 97.3685 14.4558 100.037 14.5097V19.0033Z" fill="#0E1E43"/>
<path d="M138.246 32.8266H127.963V28.7901H130.851V23.1542C130.851 19.9935 129.234 18.2418 126.461 18.2418C125.074 18.2418 123.533 18.889 122.262 20.717C122.419 21.43 122.497 22.1578 122.493 22.8875V28.7901H125.421V32.8266H115.137V28.7901H118.026V23.1542C118.026 19.9935 116.447 18.2418 113.635 18.2418C112.325 18.2418 110.9 18.9653 109.668 20.6789V28.7901H112.633V32.8266H102.35V28.7901H105.239V18.851H102.35V14.8144H109.668V16.1092C110.9 14.9287 112.248 14.2433 114.559 14.2433C115.7 14.2212 116.83 14.4566 117.865 14.9318C118.899 15.4069 119.811 16.1091 120.529 16.9851C122.455 15.1573 124.381 14.2433 127.385 14.2433C131.814 14.2433 135.28 17.6705 135.28 22.8875V28.7901H138.246L138.246 32.8266Z" fill="#0E1E43"/>
<path d="M156.659 25.5533H142.64C143.217 27.7999 144.912 29.5136 148.032 29.5136C149.765 29.5136 151.036 28.9425 151.729 27.838H156.466C155.427 31.151 152.037 33.3981 147.878 33.3981C142.062 33.3981 138.172 29.1709 138.172 23.8396C138.172 18.4701 142.139 14.3955 147.685 14.3955C153 14.3955 156.775 18.1275 156.775 23.535C156.793 24.2097 156.754 24.8848 156.659 25.5533ZM142.64 22.0878H152.538C152.153 19.6506 150.535 17.8609 147.801 17.8609C144.95 17.8609 143.217 19.7649 142.64 22.0878Z" fill="#0E1E43"/>
<path d="M167.869 32.8266H157.585V28.7901H160.474V9.82596H157.585V5.78943H164.903V28.7901H167.869V32.8266Z" fill="#0E1E43"/>
<path d="M172.299 11.9203C171.066 11.4254 170.45 10.5495 170.45 9.48309C170.486 8.72399 170.816 8.00761 171.372 7.48283C171.927 6.95804 172.666 6.66522 173.435 6.66522C174.204 6.66522 174.943 6.95804 175.498 7.48283C176.054 8.00761 176.384 8.72399 176.42 9.48309C176.42 10.1687 176.381 10.5114 175.457 12.1869L173.185 16.4138H170.258L172.299 11.9203Z" fill="#0E1E43"/>
<path d="M186.434 22.1639C189.323 22.659 192.211 24.182 192.211 27.7617C192.211 31.1509 189.631 33.398 185.202 33.398C182.822 33.4569 180.5 32.6734 178.654 31.189V32.8265H174.61V26.6194L178.654 26.6575L178.692 26.6194C180.31 28.5236 181.889 29.9705 184.701 29.9705C187.05 29.9705 187.705 28.9802 187.705 28.0285C187.705 27.0382 187.012 26.2767 185.356 25.9721L182.043 25.4389C178.115 24.7535 175.342 23.1161 175.342 19.7649C175.342 16.1473 178.538 14.2432 182.775 14.2432C185.009 14.2432 186.627 14.8524 187.744 15.9188V14.7383H191.749V20.298H187.744C186.242 18.6605 185.124 17.5943 182.852 17.5943C180.811 17.5943 180.002 18.47 180.002 19.4602C180.002 20.4123 180.657 21.1739 182.775 21.5547L186.434 22.1639Z" fill="#0E1E43"/>
<path d="M22.9335 0.644073L0 12.3504L14.2893 19.6441L22.9335 15.232V0.644073Z" fill="#F69220"/>
<path d="M22.9335 38.6442V24.0563L14.2893 19.6441L0 26.9379L22.9335 38.6442Z" fill="#0E1E43"/>
<path d="M0 12.3503V26.9379L14.2893 19.6441L0 12.3503Z" fill="#EE3C23"/>
<path d="M213.959 8.42605C213.959 9.69353 213.031 10.4608 211.496 10.4608H210.037V12.2289H209.193V6.39111H211.496C213.031 6.39111 213.959 7.15838 213.959 8.42605ZM213.115 8.42605C213.115 7.59209 212.55 7.1166 211.471 7.1166H210.037V9.73529H211.471C212.55 9.73529 213.115 9.25982 213.115 8.42605Z" fill="#009245"/>
<path d="M221.508 12.2289L220.235 10.4358C220.116 10.444 219.99 10.4525 219.863 10.4525H218.404V12.2288H217.561V6.39111H219.863C221.399 6.39111 222.326 7.15838 222.326 8.42605C222.346 8.83187 222.229 9.23263 221.994 9.56595C221.759 9.89927 221.419 10.1465 221.027 10.269L222.427 12.2289H221.508ZM221.483 8.42605C221.483 7.59209 220.918 7.1166 219.838 7.1166H218.404V9.74372H219.838C220.918 9.74372 221.483 9.25982 221.483 8.42605Z" fill="#009245"/>
<path d="M230.34 11.5034V12.2289H226.055V6.39111H230.222V7.1166H226.898V8.90966H229.859V9.61862H226.898V11.5034H230.34Z" fill="#009245"/>
<path d="M233.562 9.30999C233.557 8.90731 233.636 8.50787 233.793 8.13625C233.95 7.76463 234.182 7.42866 234.475 7.14903C234.768 6.86939 235.116 6.65199 235.497 6.51018C235.878 6.36837 236.285 6.30516 236.692 6.32443C237.11 6.30808 237.526 6.38079 237.913 6.53764C238.3 6.69449 238.649 6.9318 238.935 7.23349L238.387 7.75865C238.176 7.53317 237.918 7.35482 237.632 7.23547C237.345 7.11611 237.036 7.0585 236.725 7.06645C236.423 7.05976 236.122 7.11283 235.841 7.22257C235.56 7.3323 235.304 7.49647 235.088 7.70545C234.872 7.91443 234.7 8.16401 234.583 8.43952C234.465 8.71503 234.405 9.01093 234.405 9.30984C234.405 9.60875 234.465 9.90464 234.583 10.1802C234.7 10.4557 234.872 10.7052 235.088 10.9142C235.304 11.1232 235.56 11.2874 235.841 11.3971C236.122 11.5068 236.423 11.5599 236.725 11.5532C237.037 11.5597 237.346 11.5005 237.632 11.3797C237.919 11.2589 238.176 11.0793 238.387 10.8526L238.935 11.3781C238.648 11.6818 238.299 11.9208 237.91 12.0791C237.521 12.2374 237.103 12.3111 236.683 12.2954C236.277 12.3138 235.871 12.25 235.491 12.1077C235.11 11.9655 234.763 11.748 234.471 11.4684C234.179 11.1888 233.948 10.8532 233.791 10.482C233.635 10.1108 233.557 9.71201 233.562 9.30999Z" fill="#009245"/>
<path d="M242.503 6.39111H243.347V12.2289H242.503V6.39111Z" fill="#009245"/>
<path d="M246.94 11.5618L247.253 10.9112C247.802 11.3543 248.492 11.5933 249.201 11.5867C250.221 11.5867 250.66 11.1947 250.66 10.6861C250.66 9.25998 247.084 10.1606 247.084 7.9923C247.084 7.09169 247.792 6.32442 249.344 6.32442C250.014 6.31234 250.673 6.49191 251.242 6.84149L250.964 7.50859C250.48 7.20261 249.919 7.03786 249.344 7.03329C248.34 7.03329 247.91 7.45034 247.91 7.95896C247.91 9.38508 251.487 8.49271 251.487 10.6361C251.487 11.5283 250.761 12.2955 249.201 12.2955C248.384 12.319 247.584 12.0595 246.94 11.5618Z" fill="#009245"/>
<path d="M255.08 6.39111H255.923V12.2289H255.08V6.39111Z" fill="#009245"/>
<path d="M259.576 9.30999C259.576 7.60035 260.909 6.32442 262.722 6.32442C263.128 6.31006 263.532 6.37665 263.911 6.52022C264.29 6.6638 264.636 6.8814 264.928 7.16006C265.22 7.43871 265.452 7.77269 265.611 8.14207C265.77 8.51145 265.852 8.90867 265.852 9.30999C265.852 9.7113 265.77 10.1085 265.611 10.4779C265.452 10.8473 265.22 11.1813 264.928 11.4599C264.636 11.7386 264.29 11.9562 263.911 12.0997C263.532 12.2433 263.128 12.3099 262.722 12.2955C260.909 12.2955 259.576 11.0196 259.576 9.30999ZM265.008 9.30999C265.013 8.8599 264.883 8.4185 264.633 8.04195C264.384 7.6654 264.027 7.37072 263.607 7.19538C263.188 7.02005 262.726 6.972 262.279 7.05735C261.832 7.1427 261.42 7.35758 261.097 7.67466C260.774 7.99175 260.554 8.39669 260.464 8.83799C260.374 9.27928 260.42 9.73696 260.594 10.1528C260.768 10.5687 261.063 10.9239 261.442 11.1733C261.821 11.4227 262.267 11.555 262.722 11.5534C263.023 11.5627 263.323 11.5113 263.604 11.402C263.884 11.2928 264.139 11.1282 264.353 10.9182C264.567 10.7083 264.736 10.4573 264.848 10.1808C264.961 9.90428 265.015 9.60797 265.008 9.30999Z" fill="#009245"/>
<path d="M274.581 6.39111V12.2289H273.89L270.347 7.87565V12.2289H269.504V6.39111H270.195L273.738 10.7443V6.39111H274.581Z" fill="#009245"/>
<path d="M210.037 17.1246V19.1596H212.997V19.8768H210.037V22.2369H209.193V16.3991H213.36V17.1246H210.037Z" fill="#EE3C23"/>
<path d="M220.403 20.7775H217.266L216.616 22.2369H215.748L218.422 16.3991H219.257L221.939 22.2369H221.053L220.403 20.7775ZM220.108 20.1104L218.834 17.2497L217.561 20.1104H220.108Z" fill="#EE3C23"/>
<path d="M230.255 20.6608C230.255 21.6614 229.488 22.2369 227.995 22.2369H225.177V16.3991H227.826C229.184 16.3991 229.943 16.9662 229.943 17.9086C229.954 18.1783 229.884 18.4451 229.744 18.6763C229.603 18.9075 229.396 19.0928 229.15 19.2096C229.478 19.2841 229.768 19.4705 229.97 19.736C230.173 20.0014 230.273 20.329 230.255 20.6608ZM226.021 17.0747V18.9427H227.75C228.611 18.9427 229.1 18.6259 229.1 18.0087C229.1 17.3915 228.611 17.0747 227.75 17.0747H226.021ZM229.404 20.594C229.404 19.9185 228.897 19.6183 227.961 19.6183H226.021V21.5614H227.961C228.897 21.5614 229.403 21.2694 229.403 20.5939L229.404 20.594Z" fill="#EE3C23"/>
<path d="M237.872 22.2369L236.599 20.4438C236.48 20.452 236.354 20.4605 236.227 20.4605H234.768V22.2368H233.925V16.3991H236.227C237.763 16.3991 238.69 17.1664 238.69 18.4341C238.71 18.8399 238.593 19.2407 238.358 19.574C238.123 19.9073 237.783 20.1545 237.391 20.277L238.792 22.2369H237.872ZM237.847 18.4341C237.847 17.6001 237.282 17.1246 236.202 17.1246H234.768V19.7519H236.202C237.282 19.7519 237.847 19.268 237.847 18.4341Z" fill="#EE3C23"/>
<path d="M242.419 16.3991H243.263V22.2369H242.419L242.419 16.3991Z" fill="#EE3C23"/>
<path d="M246.915 19.318C246.91 18.9153 246.988 18.5159 247.145 18.1443C247.302 17.7726 247.534 17.4367 247.828 17.157C248.121 16.8774 248.469 16.66 248.85 16.5182C249.231 16.3764 249.638 16.3132 250.044 16.3325C250.462 16.3161 250.879 16.3888 251.266 16.5457C251.653 16.7025 252.002 16.9398 252.288 17.2415L251.74 17.7667C251.528 17.5412 251.271 17.3629 250.984 17.2435C250.698 17.1242 250.389 17.0665 250.078 17.0745C249.776 17.0678 249.475 17.1209 249.194 17.2306C248.913 17.3404 248.657 17.5045 248.44 17.7135C248.224 17.9225 248.053 18.1721 247.935 18.4476C247.818 18.7231 247.758 19.019 247.758 19.3179C247.758 19.6168 247.818 19.9127 247.935 20.1882C248.053 20.4637 248.224 20.7133 248.44 20.9223C248.657 21.1313 248.913 21.2954 249.194 21.4052C249.475 21.5149 249.776 21.568 250.078 21.5613C250.389 21.5677 250.699 21.5086 250.985 21.3878C251.272 21.267 251.529 21.0873 251.74 20.8607L252.288 21.3862C252.001 21.6898 251.651 21.9289 251.263 22.0872C250.874 22.2454 250.456 22.3192 250.036 22.3034C249.63 22.3219 249.224 22.258 248.844 22.1158C248.463 21.9736 248.116 21.756 247.824 21.4764C247.532 21.1969 247.3 20.8612 247.144 20.49C246.988 20.1189 246.91 19.72 246.915 19.318Z" fill="#EE3C23"/>
<path d="M259.474 20.7775H256.337L255.687 22.2369H254.818L257.492 16.3991H258.327L261.009 22.2369H260.124L259.474 20.7775ZM259.179 20.1104L257.905 17.2497L256.632 20.1104H259.179Z" fill="#EE3C23"/>
<path d="M265.126 17.1246H263.102V16.3991H267.985V17.1246H265.961V22.2369H265.126V17.1246Z" fill="#EE3C23"/>
<path d="M271.267 16.3991H272.11V22.2369H271.267V16.3991Z" fill="#EE3C23"/>
<path d="M275.763 19.318C275.763 17.6084 277.096 16.3324 278.909 16.3324C279.315 16.3181 279.719 16.3847 280.098 16.5283C280.477 16.6718 280.823 16.8894 281.115 17.1681C281.407 17.4467 281.639 17.7807 281.798 18.1501C281.957 18.5195 282.039 18.9167 282.039 19.318C282.039 19.7193 281.957 20.1165 281.798 20.4859C281.639 20.8553 281.407 21.1893 281.115 21.4679C280.823 21.7466 280.477 21.9642 280.098 22.1078C279.719 22.2513 279.315 22.3179 278.909 22.3036C277.096 22.3036 275.763 21.0276 275.763 19.318ZM281.195 19.318C281.2 18.8679 281.07 18.4265 280.82 18.0499C280.571 17.6733 280.214 17.3786 279.795 17.2033C279.375 17.0279 278.913 16.9798 278.466 17.0652C278.019 17.1505 277.607 17.3654 277.284 17.6824C276.961 17.9995 276.741 18.4045 276.651 18.8457C276.561 19.287 276.607 19.7447 276.781 20.1606C276.955 20.5765 277.25 20.9317 277.629 21.1811C278.008 21.4305 278.454 21.5628 278.909 21.5612C279.21 21.5706 279.51 21.5191 279.791 21.4099C280.071 21.3007 280.326 21.1361 280.54 20.9261C280.754 20.7162 280.923 20.4653 281.035 20.1888C281.148 19.9123 281.202 19.616 281.195 19.318H281.195Z" fill="#EE3C23"/>
<path d="M290.769 16.3991V22.2369H290.077L286.534 17.8838V22.237H285.691V16.3991H286.383L289.925 20.7524V16.3991H290.769Z" fill="#EE3C23"/>
<path d="M208.653 31.5774L208.966 30.9272C209.516 31.3703 210.205 31.6093 210.914 31.6027C211.935 31.6027 212.373 31.2107 212.373 30.7019C212.373 29.2758 208.797 30.1764 208.797 28.0081C208.797 27.1075 209.505 26.3403 211.058 26.3403C211.727 26.3282 212.386 26.5077 212.955 26.8573L212.677 27.5244C212.193 27.2184 211.632 27.0537 211.058 27.0491C210.053 27.0491 209.623 27.4662 209.623 27.9748C209.623 29.4009 213.2 28.5085 213.2 30.6521C213.2 31.5441 212.474 32.3115 210.914 32.3115C210.097 32.335 209.297 32.0753 208.653 31.5774Z" fill="#0E1E43"/>
<path d="M221.871 26.4069V32.2449H221.027V29.6427H217.636V32.2449H216.793V26.4069H217.636V28.9172H221.027V26.4069H221.871Z" fill="#0E1E43"/>
<path d="M230.289 31.5193V32.2449H226.004V26.407H230.171V27.1325H226.847V28.9256H229.808V29.6345H226.847V31.5193H230.289Z" fill="#0E1E43"/>
<path d="M238.302 31.5193V32.2449H234.017V26.407H238.184V27.1325H234.861V28.9256H237.822V29.6345H234.861V31.5193H238.302Z" fill="#0E1E43"/>
<path d="M243.203 27.1325H241.179V26.4069H246.062V27.1325H244.038V32.2449H243.203V27.1325Z" fill="#0E1E43"/>
<path d="M259.449 32.2449L259.441 27.9915L257.307 31.536H256.919L254.785 28.0166V32.2449H253.975V26.4069H254.667L257.13 30.5099L259.559 26.4069H260.251L260.259 32.2449H259.449Z" fill="#0E1E43"/>
<path d="M268.677 31.5193V32.2449H264.392V26.407H268.559V27.1325H265.236V28.9256H268.196V29.6345H265.236V31.5193H268.677Z" fill="#0E1E43"/>
<path d="M273.578 27.1325H271.554V26.4069H276.437V27.1325H274.413V32.2449H273.578L273.578 27.1325Z" fill="#0E1E43"/>
<path d="M283.186 30.7854H280.048L279.398 32.2449H278.53L281.204 26.4069H282.039L284.721 32.2449H283.835L283.186 30.7854ZM282.89 30.1182L281.617 27.2576L280.343 30.1182H282.89Z" fill="#0E1E43"/>
<path d="M287.96 26.4069H288.803V31.5193H292V32.245H287.96V26.4069Z" fill="#0E1E43"/>
<path d="M200.49 6.46149V32.8266" stroke="#B3B3B3" stroke-miterlimit="10"/>
</g>
<defs>
<clipPath id="clip0_207_2">
<rect width="292" height="38" fill="white" transform="translate(0 0.644073)"/>
</clipPath>
</defs>
</svg>
